PathFileType	4	(X/Y/Z)	C:/Users/beibeiliu/ov580/test_trc\sequence.15_training_dense_left.trc
DataRate	CameraRate	NumFrames	NumMarkers	Units	OrigDataRate	OrigDataStartFrame	OrigNumFrames
120	120	24	19	mm	120	128	153
Frame#	Time	ThumbCMC			ThumbMCP			ThumbIP			ThumbTip			IndexMCP			IndexPIP			IndexTip			MiddleMCP			MiddlePIP			MiddleTip			RingMCP			RingPIP			RingTip			PinkyMCP			PinkyPIP			PinkyTip			BackHand1			BackHand2			BackHand3	
		X0	Y0	Z0	X1	Y1	Z1	X2	Y2	Z2	X3	Y3	Z3	X4	Y4	Z4	X5	Y5	Z5	X6	Y6	Z6	X7	Y7	Z7	X8	Y8	Z8	X9	Y9	Z9	X10	Y10	Z10	X11	Y11	Z11	X12	Y12	Z12	X13	Y13	Z13	X14	Y14	Z14	X15	Y15	Z15	X16	Y16	Z16	X17	Y17	Z17	X18	Y18	Z18	
127	1.05833	-170.219	19.3567	138.006	-136.609	22.6318	121.922	-120.814	8.92281	100.963	-116.634	-13.6881	89.6577	-168.039	6.94478	65.0778	-149.191	10.2415	43.505	-127.146	6.82717	31.8355	-169.403	-19.6288	62.5298	-156.304	-18.0979	38.888	-131.607	-22.5953	20.1806	-160.794	-35.4752	72.4017	-140.533	-41.8048	51.6272	-112.322	-30.9618	38.282	-151.82	-47.272	85.6638	-125.618	-40.539	73.541	-108.554	-21.6204	91.6488	-188.088	-38.9091	117.971	-196.604	-35.2114	144.924	-197.867	-3.47057	126.482	
128	1.06667	-189.344	15.0458	131.877	-160.149	22.9825	111.525	-141.257	13.5581	90.2755	-135.185	-11.8689	85.3417	-187.951	-1.87193	58.6249	-170.913	-2.50892	38.769	-146.028	-1.80891	22.6882	-184.015	-30.6196	60.9654	-169.066	-31.7983	34.4481	-144.209	-30.7661	12.9996	-170.389	-47.0183	69.9558	-150.858	-44.8779	45.5757	-124.6	-36.2914	33.2452	-158.719	-54.3818	82.215	-132.622	-43.9946	69.6889	-120.237	-18.296	80.0796	-196.729	-43.814	116.435	-203.459	-45.0421	142.801	-214.073	-15.1958	123.38	
129	1.075	-212.752	3.04246	124.951	-187.447	15.3721	105.178	-166.509	6.56241	80.8454	-154.125	-15.0785	76.4741	-207.631	-26.5013	56.5308	-197.343	-19.4529	32.6201	-175.299	-14.3751	16.1219	-201.028	-47.6622	57.2294	-185.374	-51.0514	33.2491	-165.733	-45.0068	10.1878	-183.562	-57.0483	67.1208	-164.388	-58.3424	44.9393	-141.047	-40.408	26.8477	-166.993	-64.3745	84.817	-147.356	-50.837	64.9542	-136.836	-18.9938	70.6112	-201.372	-58.8694	117.843	-209.723	-53.6791	140.611	-224.118	-35.0892	119.171	
130	1.08333	-230.56	-4.74734	119.403	-206.789	5.69494	96.0729	-188.027	1.08025	75.2044	-170.107	-19.0484	67.6658	-228.094	-40.1725	56.5071	-213.596	-35.9143	28.7083	-195.331	-26.4262	11.0582	-213.873	-62.07	55.6203	-204.203	-63.3822	31.6893	-185.703	-56.8621	8.32381	-196.395	-66.5587	68.6018	-180.703	-65.8302	42.1015	-164.43	-48.1143	23.196	-175.471	-69.1717	82.7423	-163.857	-52.0812	58.2555	-161.824	-21.5102	63.3748	-208.3	-65.2949	119.719	-214.786	-63.487	145.484	-235.209	-46.0663	120.249	
131	1.09167	-242.083	-11.8729	122.488	-224.789	3.68512	94.6176	-206.264	-1.20955	68.0618	-186.612	-23.5787	64.4122	-241.179	-50.0011	60.175	-235.015	-43.8559	28.7836	-217.034	-34.5084	9.21179	-228.997	-68.0644	60.6827	-217.551	-71.9731	32.1145	-206.384	-62.6014	6.32634	-208.332	-71.4739	65.5153	-194.621	-68.3896	36.1868	-180.976	-52.2908	18.6906	-191.197	-69.2553	76.5121	-174.242	-55.9156	56.7988	-173.416	-23.46	59.6812	-218.162	-68.8963	117.752	-222.959	-63.3759	142.975	-247.719	-51.7123	123.476	
132	1.1	-252.974	-11.731	120.555	-237.187	8.19972	92.1466	-220.872	3.03688	69.0825	-200.885	-17.494	62.3736	-255.132	-48.4202	57.6704	-250.749	-41.7042	29.0653	-231.731	-34.2513	7.42904	-236.646	-67.7094	61.2646	-231.882	-69.4077	32.7141	-219.628	-60.3489	2.01088	-217.619	-69.6538	64.6163	-208.519	-67.0385	37.5144	-197.813	-51.6528	15.3711	-202.408	-65.0902	77.7677	-190.01	-50.3454	51.5164	-188.458	-20.4143	51.5985	-229.176	-65.9868	117.585	-226.461	-62.6448	143.882	-254.55	-50.0319	124.883	
133	1.10833	-255.845	3.93685	123.751	-237.382	17.8745	91.7245	-222.584	17.5209	66.4221	-206.736	-7.65671	60.17	-266.781	-27.2498	54.1085	-258.78	-23.0121	26.761	-245.397	-13.6873	5.84666	-250.005	-51.4304	53.7857	-245.037	-52.1752	30.3167	-230.558	-46.5137	1.20279	-229.889	-55.219	58.9101	-221.444	-52.4404	33.0545	-208.108	-38.0084	12.2882	-213.127	-55.401	73.1146	-201.204	-43.4878	49.4979	-195.511	-8.87599	48.6582	-238.463	-52.2917	112.026	-237.739	-51.1507	145.45	-262.473	-35.1403	125.758	
134	1.11667	-247.869	26.5046	119.534	-224.666	34.9304	91.8641	-211.341	30.8261	67.7691	-202.007	5.297	61.7432	-260.889	-3.83169	53.4975	-253.124	1.06422	27.6523	-243.824	7.54044	8.84595	-257.636	-24.5737	52.6002	-250.09	-27.7886	27.1814	-236.097	-22.7032	-4.3421	-236.521	-35.7466	58.5231	-229.002	-33.0271	29.2108	-215.716	-20.9283	9.61182	-219.847	-41.2282	67.7913	-206.867	-32.1527	47.3251	-195.596	-1.64144	47.4009	-243.242	-37.644	110.081	-240.491	-36.1002	138.585	-265.673	-12.8064	120.333	
135	1.125	-224.716	45.2225	120.484	-198.854	47.9428	98.4472	-189.943	34.9277	72.2272	-186.375	12.9537	61.6007	-247.239	28.7177	54.8612	-237.205	31.301	28.5457	-222.075	28.2016	7.37362	-245.139	0.568879	51.0026	-241.924	4.23511	20.2184	-228.58	1.7406	-7.36505	-232.905	-15.2059	53.0968	-222.414	-15.3748	25.0083	-203.45	-7.04778	3.1113	-217.547	-27.4627	66.0062	-201.098	-20.9541	42.7592	-182.834	6.88116	44.64	-238.613	-14.9349	106.917	-240.802	-13.7074	139.009	-252.53	15.2727	119.821	
136	1.13333	-193.601	43.9162	120.873	-167.96	40.1901	96.4316	-157.936	31.5511	67.6232	-165.41	8.16212	55.1734	-217.167	42.5633	51.3925	-205.83	49.081	25.3162	-192.432	44.0058	5.95891	-225.807	22.6726	47.8831	-220.924	20.8266	19.0468	-209.919	17.1239	-6.43513	-219.293	2.26314	50.1577	-208.857	0.567995	20.697	-192.316	3.10099	3.12655	-210.204	-13.6785	58.5529	-194.284	-12.3054	38.7006	-164.682	2.4948	39.3758	-228.065	-0.040794	99.9725	-227.141	-2.98007	128.335	-230.096	26.374	114.519	
137	1.14167	-164.365	39.7056	120.166	-139.182	29.4848	90.9918	-134.214	18.3819	64.1288	-148.574	-0.121389	51.7914	-185.706	52.3886	48.2684	-175.397	49.1153	22.1554	-161.509	43.1551	0.214819	-201.15	28.7513	44.6152	-196.785	29.8249	14.4429	-185.231	27.7613	-15.7138	-200.656	7.97107	47.0051	-192.77	5.01765	18.647	-171.051	2.71205	-5.98089	-196.84	-8.99891	53.5289	-181.624	-13.4214	30.9697	-148.331	-8.66078	32.0664	-209.971	4.81772	97.21	-214.472	4.08752	123.327	-203.561	32.7704	114.545	
138	1.15	-141.922	24.4322	114.589	-123.462	6.99618	91.6854	-122.326	-3.3045	64.0659	-137.237	-14.7521	47.7558	-158.847	44.3338	44.186	-143.761	46.9791	20.698	-134.739	35.1722	0.335685	-178.672	30.4767	39.8537	-171.438	33.5854	9.30597	-161.806	26.0053	-19.0379	-185.378	10.1316	37.5426	-175.033	5.89891	10.8899	-158.775	-0.845826	-9.95121	-187.794	-6.17584	48.6033	-172.096	-14.0644	25.7881	-141.761	-18.6957	26.2872	-197.781	8.33419	92.1341	-201.358	3.46561	116.498	-183.457	31.8946	110.372	
139	1.15833	-125.281	6.54028	116.378	-111.682	-16.1079	93.9194	-110.288	-26.1189	65.3097	-133.626	-31.7907	50.9665	-131.114	32.6113	49.6007	-115.356	28.5341	23.8588	-105.075	16.8487	1.64846	-154.595	27.2086	39.7771	-147.847	28.7254	14.3909	-136.369	17.9874	-15.9937	-169.972	10.3303	39.8569	-161.475	5.79291	13.7142	-145.282	-7.47774	-7.10907	-177.997	-6.14671	50.0832	-164.127	-16.2939	24.2195	-140.958	-38.3005	27.5194	-185.342	11.5867	87.4399	-187.763	13.1353	119.032	-159.008	29.4361	111.14	
140	1.16667	-115.678	-9.70494	126.727	-106.037	-36.6375	104.062	-107.826	-49.5765	77.3233	-130.808	-51.2354	58.0465	-108.508	8.03702	56.4007	-92.8804	-0.854139	35.3262	-85.3324	-18.7206	12.7668	-131.173	9.93818	46.2484	-122.575	4.26735	20.9863	-114.229	-12.6107	-10.6565	-148.794	-0.866003	42.3983	-144.563	-11.7423	17.6518	-128.65	-29.8916	1.60251	-165.348	-13.076	54.4949	-152.917	-29.2237	32.0414	-136.489	-56.5972	39.2102	-167.004	10.7409	93.955	-176.925	13.0464	120.354	-140.973	19.4203	111.272	
141	1.175	-113.636	-9.60418	134.328	-102.76	-38.5571	122.302	-101.627	-57.4052	95.5851	-121.915	-59.5921	79.198	-92.2709	-5.59667	66.7639	-78.987	-20.4638	49.4115	-68.4035	-41.903	30.5774	-116.276	-5.80352	51.7604	-107.66	-17.709	29.4629	-97.9173	-38.5202	3.85759	-133.471	-15.3214	50.9838	-126.098	-32.128	26.9877	-115.517	-53.3868	16.3699	-155.486	-25.8371	60.3398	-137.584	-45.7126	44.8196	-125.098	-70.0141	58.8391	-156.593	4.9033	95.9799	-168.277	14.3239	119.514	-134.176	17.5019	113.346	
142	1.18333	-112.682	6.16538	138.658	-90.7265	-25.1272	126.955	-90.0178	-45.6437	105.048	-105.324	-55.7866	90.5	-87.6674	-1.50301	67.5313	-74.9593	-16.4175	54.6522	-57.225	-32.7702	42.5428	-109.587	-9.82481	53.0353	-97.3096	-22.1885	35.7026	-84.1797	-44.4462	14.4324	-129.476	-23.847	55.493	-112.181	-38.2006	37.7654	-96.6229	-61.3063	29.5965	-140.737	-34.1858	65.6065	-119.714	-51.8686	57.1518	-103.688	-68.4179	72.4719	-156.022	-4.59844	92.8229	-169.783	9.16423	120.091	-135.173	23.3535	112.377	
143	1.19167	-116.19	27.0155	128.844	-90.7435	3.23822	126.435	-76.7303	-18.1451	106.813	-91.9054	-37.137	94.9769	-99.3455	18.5383	62.5062	-78.028	3.97792	46.308	-57.4402	-10.268	37.6053	-114.929	-4.33649	49.0756	-95.9737	-10.8315	31.9801	-74.6045	-28.7641	14.7262	-124.087	-18.7982	58.7973	-105.983	-35.3471	40.9027	-77.1145	-46.8619	33.7659	-132.471	-37.0696	67.3666	-108.863	-47.8417	62.3672	-83.5841	-50.689	84.3339	-158.122	-1.80965	93.7947	-175.797	3.46226	113.698	-151.214	25.4375	103.933	
144	1.2	-132.341	40.0001	124.825	-95.9057	25.355	114.565	-79.331	8.11111	99.1289	-88.8695	-17.1263	89.1031	-116.57	26.3938	51.799	-92.2791	23.5247	35.9739	-68.3216	15.1546	25.9766	-125.499	3.10538	45.6996	-104.016	-4.7317	24.1696	-82.4911	-12.3202	11.413	-127.489	-17.3835	56.0206	-102.127	-23.4926	35.8824	-78.0185	-31.8919	31.2889	-127.388	-33.0054	68.7668	-99.212	-34.6287	61.1394	-72.6677	-30.5109	80.9375	-159.587	-6.0796	88.8197	-181.685	-5.03522	116.303	-165.391	27.7831	99.4884	
145	1.20833	-150.314	41.6078	117.341	-112.501	39.6038	103.487	-90.5899	27.8002	87.9002	-89.2738	1.95752	78.0722	-133.96	28.7951	42.3564	-115.411	29.2351	27.5478	-88.5279	23.1687	15.8852	-136.037	2.26519	38.7263	-115.971	-1.47967	18.3368	-93.1302	-2.27698	3.55775	-129.812	-15.4007	47.7076	-109.306	-22.9723	34.6014	-80.4492	-17.8628	23.0646	-124.189	-29.8727	64.2049	-96.3885	-24.9125	58.8381	-76.5946	-8.22603	68.9552	-167.887	-11.42	91.5969	-179.275	-10.2409	112.822	-175.425	18.6973	97.8627	
146	1.21667	-162.357	37.484	107.673	-127.965	45.7893	95.7661	-108.243	36.1761	79.1267	-99.938	9.8476	70.4715	-153.205	22.3337	40.4135	-133.639	23.2001	20.8372	-109.661	30.395	4.65089	-147.346	-0.646025	34.3683	-129.979	-3.13466	15.2064	-105.829	-0.0258397	-5.55523	-137.25	-19.1014	47.9407	-113.403	-18.805	26.1306	-90.3344	-12.8814	15.7122	-125.325	-30.7974	62.9322	-102.805	-21.6114	51.9633	-84.9407	6.15238	61.654	-166.673	-20.0661	92.9778	-179.856	-20.0796	113.874	-186.728	6.45019	97.7596	
147	1.225	-174.351	30.5339	107.8	-145.003	43.8524	93.4871	-122.641	37.0078	71.0689	-112.349	12.6838	63.462	-166.373	11.0626	39.061	-149.981	18.0528	14.7488	-130.131	24.8762	-0.63126	-159.715	-11.7266	33.3645	-143.756	-10.1286	10.1532	-120.398	-5.79772	-10.4582	-146.746	-24.6767	45.4294	-127.38	-23.541	23.9227	-102.051	-12.073	10.4777	-132.179	-31.5767	60.1377	-110.44	-18.6262	46.77	-92.3327	7.29143	56.4181	-168.416	-31.1372	90.1637	-180.757	-29.5179	118.013	-191.931	-6.40081	98.2072	
148	1.23333	-183.624	27.1109	111.912	-155.576	38.2007	91.0503	-135.735	35.1403	70.5669	-123.65	9.91409	63.5366	-180.911	7.06866	40.8231	-163.512	14.4505	13.418	-142.954	15.6545	-0.114177	-169.591	-17.2532	35.4574	-155.696	-17.2996	11.993	-135.567	-12.6812	-8.2703	-154.084	-30.0048	44.4727	-137.387	-28.2113	24.3283	-114.824	-14.5751	7.19684	-140.009	-37.4925	63.8389	-121.038	-25.7163	45.1151	-107.532	0.682434	48.7665	-178.819	-33.2652	95.4942	-183.331	-33.4499	122.796	-197.59	-9.39862	99.2965	
149	1.24167	-190.256	20.5409	108.605	-164.535	35.8246	88.4236	-146.501	26.7807	67.9739	-131.47	5.2433	57.8363	-192.373	-0.4568	40.7767	-178.844	4.99797	17.4617	-159.738	11.7475	-0.786609	-178.178	-26.3508	40.3239	-168.478	-24.6732	15.5413	-150.758	-17.5035	-8.30121	-162.477	-37.0006	49.3421	-148.067	-31.5656	22.8017	-125.723	-18.691	6.03421	-146.567	-43.0399	61.3425	-129.695	-24.8284	42.5965	-116.591	3.06233	48.3562	-179.192	-40.199	94.8302	-188.751	-37.7556	127.847	-206.489	-13.7004	105.541	
150	1.25	-202.562	15.6688	110.707	-177.214	28.1007	84.58	-160.01	22.9882	64.0767	-142.678	1.47904	54.5507	-203.141	-12.6561	43.7075	-190.926	-7.84061	18.3452	-171.089	0.887331	-2.29126	-192.056	-33.4586	42.585	-180.875	-33.8163	14.7997	-161.45	-28.4447	-9.92123	-170.396	-44.4896	49.0526	-159.085	-39.4146	23.4926	-142.825	-21.6395	3.30288	-155.788	-45.9926	62.0814	-141.274	-29.8211	40.4349	-130.143	0.194835	45.3827	-185.67	-45.3	96.6908	-194.992	-42.194	130.583	-213.294	-23.8352	106.897	
